<?xml version="1.0" encoding="UTF-8"?>
<svg width="800" height="600" viewBox="0 0 800 600" xmlns="http://www.w3.org/2000/svg">
  <defs>
    <!-- Gradients -->
    <linearGradient id="screenGlow" x1="0%" y1="0%" x2="100%" y2="100%">
      <stop offset="0%" style="stop-color:#64ffda;stop-opacity:0.2"/>
      <stop offset="100%" style="stop-color:#0a192f;stop-opacity:0.1"/>
    </linearGradient>
    <linearGradient id="techGradient" x1="0%" y1="0%" x2="100%" y2="0%">
      <stop offset="0%" style="stop-color:#64ffda;stop-opacity:1"/>
      <stop offset="100%" style="stop-color:#00bcd4;stop-opacity:1"/>
    </linearGradient>
    <linearGradient id="logoGradient" x1="0%" y1="0%" x2="100%" y2="100%">
      <stop offset="0%" style="stop-color:#64ffda"/>
      <stop offset="100%" style="stop-color:#0ea5e9"/>
    </linearGradient>
    
    <!-- Code Pattern -->
    <pattern id="codePattern" x="0" y="0" width="100" height="100" patternUnits="userSpaceOnUse">
      <text x="10" y="20" fill="#64ffda" opacity="0.2" font-family="monospace" font-size="10">
        const dev = {</text>
      <text x="20" y="40" fill="#64ffda" opacity="0.2" font-family="monospace" font-size="10">
        code: true,</text>
      <text x="20" y="60" fill="#64ffda" opacity="0.2" font-family="monospace" font-size="10">
        coffee: true</text>
      <text x="10" y="80" fill="#64ffda" opacity="0.2" font-family="monospace" font-size="10">
        };</text>
    </pattern>
  </defs>

  <!-- Background Elements -->
  <rect width="800" height="600" fill="url(#codePattern)"/>
  
  <!-- Main Monitor -->
  <g transform="translate(200, 100)">
    <!-- Monitor Frame -->
    <rect x="0" y="0" width="400" height="300" rx="10" fill="#112240" stroke="url(#techGradient)" stroke-width="2"/>
    <rect x="20" y="20" width="360" height="260" rx="5" fill="url(#screenGlow)"/>
    
    <!-- Code Lines -->
    <g fill="none" stroke="#64ffda" stroke-width="2" opacity="0.6">
      <line x1="40" y1="60" x2="200" y2="60">
        <animate attributeName="x2" values="200;300;200" dur="4s" repeatCount="indefinite"/>
      </line>
      <line x1="40" y1="90" x2="150" y2="90">
        <animate attributeName="x2" values="150;250;150" dur="3s" repeatCount="indefinite"/>
      </line>
      <line x1="40" y1="120" x2="180" y2="120">
        <animate attributeName="x2" values="180;280;180" dur="5s" repeatCount="indefinite"/>
      </line>
    </g>

    <!-- Floating Elements -->
    <g>
      <!-- Custom Logo -->
      <g transform="translate(300, 40)">
        <rect
          x="0"
          y="0"
          width="40"
          height="40"
          rx="6"
          fill="url(#logoGradient)"
          stroke="rgba(100, 255, 218, 0.3)"
          stroke-width="1"
        >
          <animate attributeName="opacity" values="1;0.5;1" dur="2s" repeatCount="indefinite"/>
        </rect>
        <text
          x="20"
          y="25"
          font-family="Poppins, sans-serif"
          font-size="18"
          font-weight="700"
          fill="#0a192f"
          text-anchor="middle"
          transform="rotate(-10, 20, 20)"
          style="text-transform: uppercase; letter-spacing: 1px;"
        >
          NP
        </text>
      </g>
      
      <!-- Node.js Logo -->
      <polygon points="280,200 300,180 320,200 300,220" fill="none" stroke="#64ffda" stroke-width="2">
        <animate attributeName="transform" type="rotate" values="0 300 200;360 300 200" dur="10s" repeatCount="indefinite"/>
      </polygon>
    </g>
  </g>

  <!-- Desk -->
  <path d="M100,400 L700,400 L650,450 L150,450 Z" fill="#112240" stroke="url(#techGradient)" stroke-width="2"/>
  
  <!-- Coffee Cup -->
  <g transform="translate(600, 350)">
    <rect x="0" y="0" width="30" height="40" rx="5" fill="#112240" stroke="#64ffda" stroke-width="2"/>
    <path d="M30,10 Q40,10 40,20 L40,30 Q40,40 30,40" fill="none" stroke="#64ffda" stroke-width="2"/>
    <path d="M5,0 Q15,-10 25,0" fill="none" stroke="#64ffda" stroke-width="2">
      <animate attributeName="d" values="M5,0 Q15,-5 25,0;M5,0 Q15,-15 25,0;M5,0 Q15,-5 25,0" dur="2s" repeatCount="indefinite"/>
    </path>
  </g>

  <!-- Floating Tech Icons -->
  <g transform="translate(100, 150)">
    <!-- HTML Tag -->
    <path d="M0,0 L20,0 L25,10 L20,20 L0,20 L5,10 Z" fill="none" stroke="#64ffda" stroke-width="2">
      <animateTransform attributeName="transform" type="translate" values="0,0;0,10;0,0" dur="3s" repeatCount="indefinite"/>
    </path>
    
    <!-- CSS Brackets -->
    <path d="M50,0 C60,0 60,20 50,20 M70,0 C60,0 60,20 70,20" fill="none" stroke="#64ffda" stroke-width="2">
      <animateTransform attributeName="transform" type="translate" values="0,0;0,-10;0,0" dur="4s" repeatCount="indefinite"/>
    </path>
  </g>

  <!-- Animated Particles -->
  <g>
    <circle cx="100" cy="100" r="2" fill="#64ffda">
      <animate attributeName="cy" values="100;500;100" dur="10s" repeatCount="indefinite"/>
      <animate attributeName="opacity" values="1;0;1" dur="10s" repeatCount="indefinite"/>
    </circle>
    <circle cx="700" cy="200" r="2" fill="#64ffda">
      <animate attributeName="cy" values="200;600;200" dur="8s" repeatCount="indefinite"/>
      <animate attributeName="opacity" values="1;0;1" dur="8s" repeatCount="indefinite"/>
    </circle>
    <circle cx="400" cy="50" r="2" fill="#64ffda">
      <animate attributeName="cy" values="50;450;50" dur="12s" repeatCount="indefinite"/>
      <animate attributeName="opacity" values="1;0;1" dur="12s" repeatCount="indefinite"/>
    </circle>
  </g>
</svg>
